<svg width="293" height="101" viewBox="0 0 293 101" fill="none" xmlns="http://www.w3.org/2000/svg">
<path d="M28.0747 100.898C19.0529 100.898 12.5392 98.6523 8.53369 94.1602C4.56559 89.668 2.58154 82.5179 2.58154 72.71V63.0518H22.1226V75.4053C22.1226 77.6888 22.4595 79.4857 23.1333 80.7959C23.8446 82.0687 25.0612 82.7051 26.7832 82.7051C28.5801 82.7051 29.8154 82.181 30.4893 81.1328C31.2005 80.0846 31.5562 78.3626 31.5562 75.9668C31.5562 72.9346 31.2567 70.4077 30.6577 68.3862C30.0588 66.3273 29.0106 64.3807 27.5132 62.5464C26.0532 60.6746 24.013 58.5034 21.3926 56.0327L12.5205 47.6099C5.89453 41.3582 2.58154 34.2082 2.58154 26.1597C2.58154 17.7368 4.52816 11.3167 8.42139 6.89941C12.3521 2.4821 18.0234 0.273438 25.4355 0.273438C34.4948 0.273438 40.9149 2.68799 44.6958 7.51709C48.5142 12.3462 50.4233 19.6834 50.4233 29.5288H30.3208V22.7344C30.3208 21.3867 29.9277 20.3385 29.1416 19.5898C28.3929 18.8411 27.3634 18.4668 26.0532 18.4668C24.481 18.4668 23.3205 18.916 22.5718 19.8145C21.8605 20.6755 21.5049 21.7985 21.5049 23.1836C21.5049 24.5687 21.8792 26.0661 22.6279 27.6758C23.3766 29.2855 24.8553 31.1385 27.064 33.2349L38.4629 44.1846C40.7464 46.3558 42.8428 48.658 44.752 51.0913C46.6611 53.4871 48.196 56.2948 49.3564 59.5142C50.5169 62.6961 51.0972 66.5894 51.0972 71.1938C51.0972 80.4777 49.3752 87.7588 45.9312 93.0371C42.5246 98.278 36.5724 100.898 28.0747 100.898ZM81.3071 100.898C73.4084 100.898 67.3626 98.5213 63.1699 93.7671C59.0146 88.9754 56.937 82.0687 56.937 73.0469V26.1035C56.937 17.6432 58.9959 11.2231 63.1138 6.84326C67.269 2.46338 73.3335 0.273438 81.3071 0.273438C89.2808 0.273438 95.3265 2.46338 99.4443 6.84326C103.6 11.2231 105.677 17.6432 105.677 26.1035V73.0469C105.677 82.0687 103.581 88.9754 99.3882 93.7671C95.2329 98.5213 89.2059 100.898 81.3071 100.898ZM81.4756 82.7051C84.4704 82.7051 85.9678 79.8039 85.9678 74.0015V25.7666C85.9678 20.9001 84.5078 18.4668 81.5879 18.4668C78.2936 18.4668 76.6465 20.9562 76.6465 25.9351V74.1138C76.6465 77.1834 77.0208 79.3921 77.7695 80.7397C78.5182 82.05 79.7536 82.7051 81.4756 82.7051ZM113.651 100V1.17188H140.436C147.623 1.17188 152.845 2.93132 156.102 6.4502C159.396 9.93164 161.043 15.6966 161.043 23.7451V28.0688C161.043 32.7108 160.201 36.473 158.517 39.3555C156.869 42.238 154.343 44.1284 150.936 45.0269C155.391 46.1499 158.367 48.7891 159.864 52.9443C161.399 57.0622 162.167 62.0972 162.167 68.0493C162.167 74.4507 161.568 80.0472 160.37 84.8389C159.172 89.6305 157 93.3553 153.856 96.0132C150.711 98.6711 146.238 100 140.436 100H113.651ZM132.967 38.4009H137.01C138.845 38.4009 140.024 37.6896 140.548 36.2671C141.072 34.8446 141.334 33.1413 141.334 31.1572V21.2183C141.334 18.0363 139.93 16.4453 137.123 16.4453H132.967V38.4009ZM134.933 82.5928C140.061 82.5928 142.625 80.1595 142.625 75.293V62.9395C142.625 60.1318 142.195 57.9232 141.334 56.3135C140.51 54.6663 138.938 53.8428 136.617 53.8428H132.967V82.4805C133.791 82.5553 134.446 82.5928 134.933 82.5928ZM161.83 100L179.854 1.17188H234.435V18.5229H218.375V41.0962H233.648V57.8857H218.375V82.5366H235.726V100H199.283V73.103H187.66L183.224 100H161.83ZM190.243 56.8188H199.002V17.9614H195.802L190.243 56.8188ZM242.352 100V1.17188H272.674C277.728 1.17188 281.546 2.33236 284.129 4.65332C286.712 6.93685 288.434 10.1562 289.295 14.3115C290.194 18.4294 290.643 23.2772 290.643 28.855C290.643 34.2456 289.951 38.5506 288.565 41.77C287.218 44.9894 284.653 47.2168 280.873 48.4521C283.98 49.0885 286.151 50.6421 287.386 53.1128C288.659 55.5461 289.295 58.7093 289.295 62.6025V100H269.811V61.311C269.811 58.4285 269.212 56.6504 268.014 55.9766C266.853 55.2653 264.963 54.9097 262.342 54.9097V100H242.352ZM262.455 37.7832H267.228C269.96 37.7832 271.327 34.8071 271.327 28.855C271.327 24.9992 271.027 22.4723 270.428 21.2744C269.829 20.0765 268.706 19.4775 267.059 19.4775H262.455V37.7832Z" fill="#292828"/>
</svg>
