<svg width="289" height="101" viewBox="0 0 289 101" fill="none" xmlns="http://www.w3.org/2000/svg">
<path d="M26.0747 100.898C17.0529 100.898 10.5392 98.6523 6.53369 94.1602C2.56559 89.668 0.581543 82.5179 0.581543 72.71V63.0518H20.1226V75.4053C20.1226 77.6888 20.4595 79.4857 21.1333 80.7959C21.8446 82.0687 23.0612 82.7051 24.7832 82.7051C26.5801 82.7051 27.8154 82.181 28.4893 81.1328C29.2005 80.0846 29.5562 78.3626 29.5562 75.9668C29.5562 72.9346 29.2567 70.4077 28.6577 68.3862C28.0588 66.3273 27.0106 64.3807 25.5132 62.5464C24.0532 60.6746 22.013 58.5034 19.3926 56.0327L10.5205 47.6099C3.89453 41.3582 0.581543 34.2082 0.581543 26.1597C0.581543 17.7368 2.52816 11.3167 6.42139 6.89941C10.3521 2.4821 16.0234 0.273438 23.4355 0.273438C32.4948 0.273438 38.9149 2.68799 42.6958 7.51709C46.5142 12.3462 48.4233 19.6834 48.4233 29.5288H28.3208V22.7344C28.3208 21.3867 27.9277 20.3385 27.1416 19.5898C26.3929 18.8411 25.3634 18.4668 24.0532 18.4668C22.481 18.4668 21.3205 18.916 20.5718 19.8145C19.8605 20.6755 19.5049 21.7985 19.5049 23.1836C19.5049 24.5687 19.8792 26.0661 20.6279 27.6758C21.3766 29.2855 22.8553 31.1385 25.064 33.2349L36.4629 44.1846C38.7464 46.3558 40.8428 48.658 42.752 51.0913C44.6611 53.4871 46.196 56.2948 47.3564 59.5142C48.5169 62.6961 49.0972 66.5894 49.0972 71.1938C49.0972 80.4777 47.3752 87.7588 43.9312 93.0371C40.5246 98.278 34.5724 100.898 26.0747 100.898ZM79.3071 100.898C71.4084 100.898 65.3626 98.5213 61.1699 93.7671C57.0146 88.9754 54.937 82.0687 54.937 73.0469V26.1035C54.937 17.6432 56.9959 11.2231 61.1138 6.84326C65.269 2.46338 71.3335 0.273438 79.3071 0.273438C87.2808 0.273438 93.3265 2.46338 97.4443 6.84326C101.6 11.2231 103.677 17.6432 103.677 26.1035V73.0469C103.677 82.0687 101.581 88.9754 97.3882 93.7671C93.2329 98.5213 87.2059 100.898 79.3071 100.898ZM79.4756 82.7051C82.4704 82.7051 83.9678 79.8039 83.9678 74.0015V25.7666C83.9678 20.9001 82.5078 18.4668 79.5879 18.4668C76.2936 18.4668 74.6465 20.9562 74.6465 25.9351V74.1138C74.6465 77.1834 75.0208 79.3921 75.7695 80.7397C76.5182 82.05 77.7536 82.7051 79.4756 82.7051ZM111.651 100V1.17188H138.436C145.623 1.17188 150.845 2.93132 154.102 6.4502C157.396 9.93164 159.043 15.6966 159.043 23.7451V28.0688C159.043 32.7108 158.201 36.473 156.517 39.3555C154.869 42.238 152.343 44.1284 148.936 45.0269C153.391 46.1499 156.367 48.7891 157.864 52.9443C159.399 57.0622 160.167 62.0972 160.167 68.0493C160.167 74.4507 159.568 80.0472 158.37 84.8389C157.172 89.6305 155 93.3553 151.856 96.0132C148.711 98.6711 144.238 100 138.436 100H111.651ZM130.967 38.4009H135.01C136.845 38.4009 138.024 37.6896 138.548 36.2671C139.072 34.8446 139.334 33.1413 139.334 31.1572V21.2183C139.334 18.0363 137.93 16.4453 135.123 16.4453H130.967V38.4009ZM132.933 82.5928C138.061 82.5928 140.625 80.1595 140.625 75.293V62.9395C140.625 60.1318 140.195 57.9232 139.334 56.3135C138.51 54.6663 136.938 53.8428 134.617 53.8428H130.967V82.4805C131.791 82.5553 132.446 82.5928 132.933 82.5928ZM159.83 100L177.854 1.17188H232.435V18.5229H216.375V41.0962H231.648V57.8857H216.375V82.5366H233.726V100H197.283V73.103H185.66L181.224 100H159.83ZM188.243 56.8188H197.002V17.9614H193.802L188.243 56.8188ZM240.352 100V1.17188H270.674C275.728 1.17188 279.546 2.33236 282.129 4.65332C284.712 6.93685 286.434 10.1562 287.295 14.3115C288.194 18.4294 288.643 23.2772 288.643 28.855C288.643 34.2456 287.951 38.5506 286.565 41.77C285.218 44.9894 282.653 47.2168 278.873 48.4521C281.98 49.0885 284.151 50.6421 285.386 53.1128C286.659 55.5461 287.295 58.7093 287.295 62.6025V100H267.811V61.311C267.811 58.4285 267.212 56.6504 266.014 55.9766C264.853 55.2653 262.963 54.9097 260.342 54.9097V100H240.352ZM260.455 37.7832H265.228C267.96 37.7832 269.327 34.8071 269.327 28.855C269.327 24.9992 269.027 22.4723 268.428 21.2744C267.829 20.0765 266.706 19.4775 265.059 19.4775H260.455V37.7832Z" fill="#292828"/>
</svg>
