<svg width="512" height="512" viewBox="0 0 512 512" fill="none" xmlns="http://www.w3.org/2000/svg">
<rect width="512" height="512" fill="#DBDAD9"/>
<path d="M86.6007 326.333C73.7474 326.333 64.4674 323.133 58.7607 316.733C53.1074 310.333 50.2807 300.147 50.2807 286.173V272.413H78.1207V290.013C78.1207 293.267 78.6007 295.827 79.5607 297.693C80.574 299.507 82.3074 300.413 84.7607 300.413C87.3207 300.413 89.0807 299.667 90.0407 298.173C91.054 296.68 91.5607 294.227 91.5607 290.813C91.5607 286.493 91.134 282.893 90.2807 280.013C89.4274 277.08 87.934 274.307 85.8007 271.693C83.7207 269.027 80.814 265.933 77.0807 262.413L64.4407 250.413C55.0007 241.507 50.2807 231.32 50.2807 219.853C50.2807 207.853 53.054 198.707 58.6007 192.413C64.2007 186.12 72.2807 182.973 82.8407 182.973C95.7474 182.973 104.894 186.413 110.281 193.293C115.721 200.173 118.441 210.627 118.441 224.653H89.8007V214.973C89.8007 213.053 89.2407 211.56 88.1207 210.493C87.054 209.427 85.5874 208.893 83.7207 208.893C81.4807 208.893 79.8274 209.533 78.7607 210.813C77.7474 212.04 77.2407 213.64 77.2407 215.613C77.2407 217.587 77.774 219.72 78.8407 222.013C79.9074 224.307 82.014 226.947 85.1607 229.933L101.401 245.533C104.654 248.627 107.641 251.907 110.361 255.373C113.081 258.787 115.267 262.787 116.921 267.373C118.574 271.907 119.401 277.453 119.401 284.013C119.401 297.24 116.947 307.613 112.041 315.133C107.187 322.6 98.7074 326.333 86.6007 326.333ZM162.441 326.333C151.187 326.333 142.574 322.947 136.601 316.173C130.681 309.347 127.721 299.507 127.721 286.653V219.773C127.721 207.72 130.654 198.573 136.521 192.333C142.441 186.093 151.081 182.973 162.441 182.973C173.801 182.973 182.414 186.093 188.281 192.333C194.201 198.573 197.161 207.72 197.161 219.773V286.653C197.161 299.507 194.174 309.347 188.201 316.173C182.281 322.947 173.694 326.333 162.441 326.333ZM162.681 300.413C166.947 300.413 169.081 296.28 169.081 288.013V219.293C169.081 212.36 167.001 208.893 162.841 208.893C158.147 208.893 155.801 212.44 155.801 219.533V288.173C155.801 292.547 156.334 295.693 157.401 297.613C158.467 299.48 160.227 300.413 162.681 300.413ZM208.521 325.053V184.253H246.681C256.921 184.253 264.361 186.76 269.001 191.773C273.694 196.733 276.041 204.947 276.041 216.413V222.573C276.041 229.187 274.841 234.547 272.441 238.653C270.094 242.76 266.494 245.453 261.641 246.733C267.987 248.333 272.227 252.093 274.361 258.013C276.547 263.88 277.641 271.053 277.641 279.533C277.641 288.653 276.787 296.627 275.081 303.453C273.374 310.28 270.281 315.587 265.801 319.373C261.321 323.16 254.947 325.053 246.681 325.053H208.521ZM236.041 237.293H241.801C244.414 237.293 246.094 236.28 246.841 234.253C247.587 232.227 247.961 229.8 247.961 226.973V212.813C247.961 208.28 245.961 206.013 241.961 206.013H236.041V237.293ZM238.841 300.253C246.147 300.253 249.801 296.787 249.801 289.853V272.253C249.801 268.253 249.187 265.107 247.961 262.813C246.787 260.467 244.547 259.293 241.241 259.293H236.041V300.093C237.214 300.2 238.147 300.253 238.841 300.253ZM277.161 325.053L302.841 184.253H380.601V208.973H357.721V241.133H379.481V265.053H357.721V300.173H382.441V325.053H330.521V286.733H313.961L307.641 325.053H277.161ZM317.641 263.533H330.121V208.173H325.561L317.641 263.533ZM391.881 325.053V184.253H435.081C442.281 184.253 447.721 185.907 451.401 189.213C455.081 192.467 457.534 197.053 458.761 202.973C460.041 208.84 460.681 215.747 460.681 223.693C460.681 231.373 459.694 237.507 457.721 242.093C455.801 246.68 452.147 249.853 446.761 251.613C451.187 252.52 454.281 254.733 456.041 258.253C457.854 261.72 458.761 266.227 458.761 271.773V325.053H431.001V269.933C431.001 265.827 430.147 263.293 428.441 262.333C426.787 261.32 424.094 260.813 420.361 260.813V325.053H391.881ZM420.521 236.413H427.321C431.214 236.413 433.161 232.173 433.161 223.693C433.161 218.2 432.734 214.6 431.881 212.893C431.027 211.187 429.427 210.333 427.081 210.333H420.521V236.413Z" fill="#292829"/>
</svg>
