<svg width="30" height="30" viewBox="0 0 30 30" fill="none" xmlns="http://www.w3.org/2000/svg">
<g clip-path="url(#clip0_54_2)">
<path d="M9.61875 27.9923L12.9127 24.6173C11.7617 24.3674 10.6654 23.9116 9.67641 23.272L9.61875 27.9923ZM20.3812 2.00812L17.0883 5.38266C18.2392 5.63279 19.3356 6.0887 20.3245 6.72844L20.3812 2.00812ZM5.38313 17.0878L2.00766 20.3808L6.72797 20.3236C6.08841 19.3348 5.63281 18.2386 5.38313 17.0878ZM24.6169 12.9127L27.9923 9.61875L23.272 9.67641C23.9116 10.6653 24.3672 11.7617 24.6169 12.9127ZM6.72844 9.67594L2.00812 9.61828L5.38359 12.9122C5.63278 11.7611 6.08842 10.6646 6.72844 9.67594ZM23.2716 20.3241L27.9919 20.3812L24.6164 17.0878C24.3671 18.2389 23.9115 19.3353 23.2716 20.3241ZM12.9127 5.38266L9.61875 2.00766L9.67641 6.72797C10.6654 6.08838 11.7617 5.63263 12.9127 5.38266ZM17.0873 24.6173L20.3812 27.9919L20.3236 23.272C19.3345 23.9114 18.2382 24.3672 17.0873 24.6173ZM6.915 20.6072L5.05547 24.9436L9.39234 23.085C8.42571 22.413 7.58677 21.574 6.915 20.6072ZM23.085 9.39328L24.9436 5.05641L20.6077 6.915C21.5743 7.58712 22.4132 8.42637 23.085 9.39328ZM5.15625 15C5.15625 14.4009 5.21859 13.8169 5.32125 13.2464L0.9375 14.9995L5.32125 16.7527C5.2141 16.1745 5.15888 15.588 5.15625 15ZM29.0625 15L24.6787 13.2464C24.7814 13.8169 24.8438 14.4009 24.8438 15C24.8438 15.5995 24.7814 16.1836 24.6787 16.7536L29.0625 15ZM9.39328 6.91453L5.05641 5.05594L6.915 9.39281C7.58735 8.42609 8.42656 7.58688 9.39328 6.91453ZM20.6067 23.085L24.9436 24.9436L23.085 20.6072C22.4128 21.5739 21.5735 22.413 20.6067 23.085ZM16.7531 5.32125L15 0.9375L13.2469 5.32125C13.8164 5.21859 14.4005 5.15625 15 5.15625C15.5995 5.15625 16.1836 5.21859 16.7531 5.32125ZM13.2469 24.6787L15 29.0625L16.7531 24.6787C16.1836 24.7814 15.5995 24.8438 15 24.8438C14.4005 24.8438 13.8164 24.7814 13.2469 24.6787Z" fill="#FCF4F0"/>
<path d="M15 23.9062C19.9188 23.9062 23.9062 19.9188 23.9062 15C23.9062 10.0812 19.9188 6.09375 15 6.09375C10.0812 6.09375 6.09375 10.0812 6.09375 15C6.09375 19.9188 10.0812 23.9062 15 23.9062Z" fill="#FCF4F0"/>
</g>
<defs>
<clipPath id="clip0_54_2">
<rect width="30" height="30" fill="white"/>
</clipPath>
</defs>
</svg>
