<svg width="30" height="30" viewBox="0 0 30 30" fill="none" xmlns="http://www.w3.org/2000/svg">
<path d="M19.5636 12.2983C15.7426 16.3003 11.92 26.1235 11.92 26.1235C11.92 26.1235 6.45924 12.2983 1 9.10693" stroke="#333333" stroke-width="1.25" stroke-linecap="round" stroke-linejoin="round"/>
<path d="M28.0656 3.81165L28.7247 10.6554C29.1516 15.0952 25.8241 19.0477 21.3843 19.4762C17.0281 19.8939 13.0818 16.7102 12.6625 12.354C12.5622 11.318 12.6671 10.2725 12.9712 9.27706C13.2752 8.28166 13.7725 7.35594 14.4345 6.55283C15.0965 5.74972 15.9103 5.08496 16.8294 4.59656C17.7485 4.10816 18.7549 3.8057 19.7909 3.70646L27.0864 3.00414C27.2037 2.99283 27.3221 3.00475 27.4349 3.03922C27.5476 3.07368 27.6524 3.13002 27.7433 3.20501C27.8343 3.28 27.9095 3.37218 27.9648 3.47627C28.0201 3.58036 28.0544 3.69432 28.0656 3.81165Z" stroke="#333333" stroke-width="1.25" stroke-linecap="round" stroke-linejoin="round"/>
</svg>
