<svg width="30" height="30" viewBox="0 0 30 30" fill="none" xmlns="http://www.w3.org/2000/svg">
<path d="M18.75 24.9037L11.25 22.2787L6.3025 24.1912C5.9825 24.3104 5.68542 24.2758 5.41125 24.0874C5.13708 23.8991 5 23.6341 5 23.2924V8.00494C5 7.78161 5.05417 7.57786 5.1625 7.39369C5.27083 7.20952 5.42833 7.08161 5.635 7.00994L11.25 5.09619L18.75 7.72119L23.6975 5.80869C24.0175 5.68952 24.3146 5.71202 24.5887 5.87619C24.8629 6.04036 25 6.28536 25 6.61119V22.0912C25 22.3304 24.9337 22.5379 24.8012 22.7137C24.6696 22.8904 24.4921 23.0145 24.2688 23.0862L18.75 24.9037ZM18.125 23.3787V8.75369L11.875 6.57244V21.1974L18.125 23.3787ZM19.375 23.3787L23.75 21.9374V7.12494L19.375 8.75494V23.3787ZM6.25 22.8749L10.625 21.1974V6.57244L6.25 8.06244V22.8749Z" fill="#CCCCCC"/>
</svg>
