<svg width="24" height="24" viewBox="0 0 24 24" fill="none" xmlns="http://www.w3.org/2000/svg">
<path d="M13.5 14.25V18.75C13.5 18.9489 13.579 19.1397 13.7197 19.2803C13.8603 19.421 14.0511 19.5 14.25 19.5H18.75C18.9489 19.5 19.1397 19.421 19.2803 19.2803C19.421 19.1397 19.5 18.9489 19.5 18.75V14.25C19.5 14.0511 19.421 13.8603 19.2803 13.7197C19.1397 13.579 18.9489 13.5 18.75 13.5H14.25C14.0511 13.5 13.8603 13.579 13.7197 13.7197C13.579 13.8603 13.5 14.0511 13.5 14.25ZM15 18V15H18V18H15ZM4.5 0C4.39007 4.12201e-05 4.28149 0.0242478 4.18196 0.0709058C4.08242 0.117564 3.99436 0.185533 3.924 0.27L0.174 4.77C0.0616486 4.90473 7.8935e-05 5.07457 0 5.25V7.5C0 8.832 0.579 10.0305 1.5 10.854V23.25C1.5 23.4489 1.57902 23.6397 1.71967 23.7803C1.86032 23.921 2.05109 24 2.25 24H21.75C21.9489 24 22.1397 23.921 22.2803 23.7803C22.421 23.6397 22.5 23.4489 22.5 23.25V10.854C23.421 10.029 24 8.832 24 7.5V5.223C24 5.088 24 4.98 23.826 4.77L20.076 0.27C20.0056 0.185533 19.9176 0.117564 19.818 0.0709058C19.7185 0.0242478 19.6099 4.12201e-05 19.5 0H4.5ZM4.5 10.5C3.70435 10.5 2.94129 10.1839 2.37868 9.62132C1.81607 9.05871 1.5 8.29565 1.5 7.5V6H7.5V7.5C7.5 8.29565 7.18393 9.05871 6.62132 9.62132C6.05871 10.1839 5.29565 10.5 4.5 10.5ZM12 10.5C11.2044 10.5 10.4413 10.1839 9.87868 9.62132C9.31607 9.05871 9 8.29565 9 7.5V6H15V7.5C15 8.29565 14.6839 9.05871 14.1213 9.62132C13.5587 10.1839 12.7956 10.5 12 10.5ZM19.5 10.5C18.7044 10.5 17.9413 10.1839 17.3787 9.62132C16.8161 9.05871 16.5 8.29565 16.5 7.5V6H22.5V7.5C22.5 8.29565 22.1839 9.05871 21.6213 9.62132C21.0587 10.1839 20.2956 10.5 19.5 10.5ZM4.5 22.5H3V11.745C3.94552 12.0793 4.97563 12.0882 5.92677 11.7702C6.87792 11.4523 7.6956 10.8257 8.25 9.99C8.66077 10.6084 9.21815 11.1155 9.87244 11.4662C10.5267 11.8169 11.2576 12.0003 12 12C12.7425 12.0001 13.4735 11.8165 14.1278 11.4655C14.7821 11.1146 15.3394 10.6071 15.75 9.9885C16.3044 10.8242 17.1221 11.4508 18.0732 11.7687C19.0244 12.0867 20.0545 12.0778 21 11.7435V22.5H12V14.25C12 14.0511 11.921 13.8603 11.7803 13.7197C11.6397 13.579 11.4489 13.5 11.25 13.5H5.25C5.05109 13.5 4.86032 13.579 4.71967 13.7197C4.57902 13.8603 4.5 14.0511 4.5 14.25V22.5ZM7.71 4.5H2.352L4.851 1.5H8.709L7.71 4.5ZM14.709 4.5H9.291L10.29 1.5H13.71L14.709 4.5ZM16.29 4.5L15.291 1.5H19.149L21.6495 4.5H16.29ZM6 22.5V15H10.5V22.5H6Z" fill="#333333"/>
</svg>
