<svg width="30" height="30" viewBox="0 0 30 30" fill="none" xmlns="http://www.w3.org/2000/svg">
<path d="M7.02 25C6.44417 25 5.96375 24.8075 5.57875 24.4225C5.19375 24.0375 5.00083 23.5567 5 22.98V7.02C5 6.44417 5.19292 5.96375 5.57875 5.57875C5.96458 5.19375 6.445 5.00083 7.02 5H19.4712L25 10.5288V22.9813C25 23.5563 24.8075 24.0367 24.4225 24.4225C24.0375 24.8083 23.5567 25.0008 22.98 25H7.02ZM7.02 23.75H22.9813C23.2054 23.75 23.3896 23.6779 23.5337 23.5337C23.6779 23.3896 23.75 23.2054 23.75 22.9813V11.25H18.75V6.25H7.02C6.795 6.25 6.61042 6.32208 6.46625 6.46625C6.32208 6.61042 6.25 6.795 6.25 7.02V22.9813C6.25 23.2054 6.32208 23.3896 6.46625 23.5337C6.61042 23.6779 6.795 23.75 7.02 23.75ZM9.375 20H20.625V18.75H9.375V20ZM9.375 11.25H15V10H9.375V11.25ZM9.375 15.625H20.625V14.375H9.375V15.625Z" fill="#CCCCCC"/>
</svg>
