<svg width="30" height="30" viewBox="0 0 30 30" fill="none" xmlns="http://www.w3.org/2000/svg">
<path d="M15 17.5C16.3807 17.5 17.5 16.3807 17.5 15C17.5 13.6193 16.3807 12.5 15 12.5C13.6193 12.5 12.5 13.6193 12.5 15C12.5 16.3807 13.6193 17.5 15 17.5Z" stroke="#CCCCCC" stroke-width="1.25"/>
<path d="M6.74875 7.35L7.06125 6.8075C6.93856 6.73657 6.7954 6.70944 6.65526 6.73056C6.51513 6.75168 6.38633 6.8198 6.29 6.92375L6.74875 7.35ZM4.25 11.68L3.6525 11.495C3.61091 11.6303 3.61645 11.7756 3.66823 11.9073C3.72 12.039 3.81493 12.1493 3.9375 12.22L4.25 11.68ZM4.2475 18.3188L3.935 17.7775C3.81217 17.8483 3.71705 17.9587 3.66527 18.0907C3.61348 18.2227 3.60809 18.3683 3.65 18.5038L4.2475 18.3188ZM6.7475 22.6488L6.28875 23.0738C6.38508 23.1777 6.51388 23.2458 6.65401 23.2669C6.79415 23.2881 6.93731 23.2609 7.06 23.19L6.7475 22.6488ZM12.4975 25.9675H11.8725C11.8724 26.1094 11.9207 26.2471 12.0093 26.358C12.0979 26.4689 12.2216 26.5463 12.36 26.5775L12.4975 25.9675ZM17.4987 25.97L17.6375 26.58C17.7757 26.5485 17.8991 26.471 17.9875 26.3602C18.0758 26.2493 18.1239 26.1118 18.1237 25.97H17.4987ZM23.25 22.65L22.9375 23.1913C23.0602 23.2622 23.2033 23.2893 23.3435 23.2682C23.4836 23.2471 23.6124 23.1789 23.7087 23.075L23.25 22.65ZM25.7475 18.3175L26.345 18.5025C26.3866 18.3672 26.381 18.2219 26.3293 18.0902C26.2775 17.9585 26.1826 17.8482 26.06 17.7775L25.7475 18.3175ZM25.75 11.6788L26.0625 12.22C26.1853 12.1492 26.2804 12.0388 26.3322 11.9068C26.384 11.7748 26.3894 11.6292 26.3475 11.4938L25.75 11.6788ZM23.25 7.3475L23.7087 6.9225C23.6124 6.81855 23.4836 6.75043 23.3435 6.72931C23.2033 6.70819 23.0602 6.73532 22.9375 6.80625L23.25 7.3475ZM17.5 4.03125H18.125C18.1248 3.88972 18.0767 3.75243 17.9883 3.64184C17.9 3.53125 17.7767 3.45392 17.6387 3.4225L17.5 4.03125ZM12.5 4.02875L12.3612 3.41875C12.2228 3.44997 12.0991 3.52738 12.0105 3.63825C11.9219 3.74911 11.8737 3.88683 11.8737 4.02875H12.5ZM4.8475 11.865C5.31649 10.3414 6.12269 8.94303 7.20625 7.77375L6.29 6.92375C5.07857 8.23048 4.17708 9.79209 3.6525 11.495L4.8475 11.865ZM5.7975 20.3125C5.40024 19.6244 5.08118 18.894 4.84625 18.135L3.65125 18.505C3.91458 19.353 4.2718 20.1688 4.71625 20.9375L5.7975 20.3125ZM7.2075 22.225C6.66815 21.642 6.19438 21.0005 5.7975 20.3125L4.71625 20.9375C5.15955 21.7064 5.68741 22.4234 6.29 23.075L7.2075 22.225ZM17.3612 25.3625C15.8069 25.7164 14.1927 25.7155 12.6387 25.36L12.3612 26.5775C14.0978 26.975 15.9016 26.9763 17.6387 26.5813L17.3612 25.3625ZM25.1525 18.135C24.6835 19.6586 23.8773 21.057 22.7937 22.2263L23.71 23.0763C24.9214 21.7695 25.8229 20.2066 26.3475 18.5038L25.1525 18.135ZM24.2025 9.6875C24.6075 10.3913 24.9237 11.1213 25.155 11.865L26.3487 11.495C26.0855 10.647 25.7283 9.83111 25.2837 9.0625L24.2025 9.6875ZM22.7925 7.775C23.3323 8.35771 23.806 8.99924 24.2025 9.6875L25.2837 9.0625C24.8405 8.29357 24.3126 7.57661 23.71 6.925L22.7925 7.775ZM12.6387 4.6375C14.1931 4.28363 15.8072 4.28449 17.3612 4.64L17.6387 3.4225C15.9022 3.02499 14.0984 3.0237 12.3612 3.41875L12.6387 4.6375ZM13.125 6.34V4.0275H11.875V6.34H13.125ZM9.0625 7.9625L7.06125 6.8075L6.43625 7.88875L8.43625 9.045L9.0625 7.9625ZM5.9375 16.6225L3.935 17.7775L4.56125 18.86L6.56125 17.705L5.9375 16.6225ZM6.5625 12.2925L4.5625 11.1388L3.9375 12.2213L5.9375 13.375L6.5625 12.2925ZM13.125 25.9675V23.6588H11.875V25.9675H13.125ZM8.4375 20.9525L6.43625 22.1075L7.06125 23.19L9.06125 22.035L8.4375 20.9525ZM23.5637 22.1088L21.5625 20.9525L20.9375 22.0363L22.9375 23.1913L23.5637 22.1088ZM18.125 25.9713V23.6588H16.875V25.9713H18.125ZM25.4387 11.1375L23.4375 12.2925L24.0625 13.375L26.0625 12.22L25.4387 11.1375ZM26.0612 17.7763L24.0625 16.625L23.4375 17.7075L25.4375 18.8613L26.0612 17.7763ZM18.125 6.34V4.03125H16.875V6.34H18.125ZM22.9387 6.8075L20.9375 7.96375L21.5625 9.04625L23.5637 7.89L22.9387 6.8075ZM16.875 6.34C16.875 8.745 19.4787 10.2488 21.5625 9.04625L20.9375 7.96375C20.6524 8.12837 20.3289 8.21501 19.9997 8.21496C19.6705 8.2149 19.347 8.12816 19.062 7.96345C18.7769 7.79874 18.5402 7.56188 18.3757 7.27667C18.2113 6.99147 18.1248 6.66924 18.125 6.34H16.875ZM23.4375 12.2938C21.3537 13.4963 21.3537 16.5038 23.4375 17.7063L24.0625 16.6238C23.7775 16.4592 23.5408 16.2225 23.3763 15.9375C23.2117 15.6524 23.1251 15.3291 23.1251 15C23.1251 14.6709 23.2117 14.3476 23.3763 14.0625C23.5408 13.7775 23.7775 13.5408 24.0625 13.3763L23.4375 12.2938ZM21.5625 20.9538C19.4787 19.7513 16.875 21.2525 16.875 23.6588H18.125C18.125 23.3296 18.2116 23.0075 18.3762 22.7225C18.5408 22.4375 18.7775 22.2008 19.0625 22.0362C19.3476 21.8717 19.6709 21.785 20 21.785C20.3291 21.7851 20.6525 21.8717 20.9375 22.0363L21.5625 20.9538ZM13.125 23.6588C13.125 21.2538 10.5212 19.7513 8.4375 20.9538L9.0625 22.0363C9.34762 21.8716 9.67106 21.785 10.0003 21.785C10.3295 21.7851 10.6529 21.8718 10.938 22.0366C11.2231 22.2013 11.4598 22.4381 11.6242 22.7233C11.7887 23.0085 11.8752 23.332 11.875 23.6613L13.125 23.6588ZM6.5625 17.7063C8.64625 16.5038 8.64625 13.4963 6.5625 12.2938L5.9375 13.3763C7.1875 14.0975 7.1875 15.9 5.9375 16.6225L6.5625 17.7063ZM11.875 6.34C11.8748 6.66902 11.788 6.99219 11.6233 7.27705C11.4586 7.5619 11.2219 7.79842 10.9369 7.96283C10.6519 8.12724 10.3287 8.21376 9.99967 8.21371C9.67065 8.21365 9.34744 8.12701 9.0625 7.9625L8.4375 9.04625C10.5212 10.2488 13.125 8.74625 13.125 6.34H11.875Z" fill="#CCCCCC"/>
</svg>
