<svg width="38" height="28" viewBox="0 0 38 28" fill="none" xmlns="http://www.w3.org/2000/svg">
<path d="M1.89427 4.71429H15.1056M21.9224 4.71429H36.0775M1.74224 8.54464C1.40099 6.57143 1.49669 5.90112 1.57435 4.57558L1.73349 1.87054C1.74739 1.63506 1.84523 1.41402 2.00713 1.25233C2.16904 1.09064 2.38288 1.00042 2.60521 1H14.3942C14.6165 1.00042 14.8303 1.09064 14.9922 1.25233C15.1541 1.41402 15.252 1.63506 15.2659 1.87054L15.425 4.57558C15.5032 5.90228 15.5995 6.57143 15.2577 8.54812C14.9334 10.4221 12.8673 16.2825 12.8673 22.3792V26.5357C12.8673 26.6588 12.8212 26.7769 12.7391 26.864C12.6571 26.9511 12.5458 27 12.4298 27H4.56903C4.453 27 4.34172 26.9511 4.25967 26.864C4.17762 26.7769 4.13153 26.6588 4.13153 26.5357V22.3786C4.13208 17.0121 2.08294 10.5219 1.74224 8.54464ZM21.7595 8.54464C21.3939 6.57143 21.4965 5.90112 21.5797 4.57558L21.7502 1.87054C21.7651 1.63506 21.8699 1.41402 22.0434 1.25233C22.2168 1.09064 22.4459 1.00042 22.6841 1H35.3152C35.5534 1.00042 35.7825 1.09064 35.956 1.25233C36.1294 1.41402 36.2343 1.63506 36.2491 1.87054L36.4197 4.57558C36.5034 5.90228 36.6066 6.57143 36.2404 8.54812C35.8929 10.4221 33.6792 16.2825 33.6792 22.3792V26.5357C33.6792 26.6588 33.6298 26.7769 33.5419 26.864C33.454 26.9511 33.3348 27 33.2105 27H24.7882C24.6639 27 24.5447 26.9511 24.4568 26.864C24.3689 26.7769 24.3195 26.6588 24.3195 26.5357V22.3786C24.3201 17.0121 22.1246 10.5219 21.7595 8.54464Z" stroke="#333333" stroke-width="1.25" stroke-linecap="round" stroke-linejoin="round"/>
</svg>
