<svg width="30" height="30" viewBox="0 0 30 30" fill="none" xmlns="http://www.w3.org/2000/svg">
<path d="M7.92243 5.625H22.0775M7.75954 9.49219C7.39392 7.5 7.49646 6.82324 7.57966 5.48496L7.75017 2.75391C7.76506 2.51616 7.86989 2.29301 8.04336 2.12976C8.21684 1.96652 8.44595 1.87543 8.68415 1.875H21.3152C21.5534 1.87543 21.7825 1.96652 21.956 2.12976C22.1295 2.29301 22.2343 2.51616 22.2492 2.75391L22.4197 5.48496C22.5035 6.82441 22.6066 7.5 22.2404 9.4957C21.8929 11.3877 19.6793 17.3045 19.6793 23.4598V27.6562C19.6793 27.7806 19.6299 27.8998 19.542 27.9877C19.4541 28.0756 19.3348 28.125 19.2105 28.125H10.7883C10.6639 28.125 10.5447 28.0756 10.4568 27.9877C10.3689 27.8998 10.3195 27.7806 10.3195 27.6562V23.4592C10.3201 18.041 8.12458 11.4885 7.75954 9.49219Z" stroke="#CCCCCC" stroke-width="1.875" stroke-linecap="round" stroke-linejoin="round"/>
</svg>
