<svg width="26" height="26" viewBox="0 0 26 26" fill="none" xmlns="http://www.w3.org/2000/svg">
<path d="M24.25 7.82495C24.25 7.28745 24.18 6.7637 24.0488 6.26745C23.9338 5.8312 23.3962 5.72745 23.0787 6.0462L20.925 8.19995C20.7198 8.40514 20.4762 8.5679 20.2081 8.67895C19.94 8.79 19.6527 8.84716 19.3625 8.84716C19.0723 8.84716 18.785 8.79 18.5169 8.67895C18.2488 8.5679 18.0052 8.40514 17.8 8.19995C17.5948 7.99476 17.432 7.75116 17.321 7.48307C17.2099 7.21497 17.1528 6.92763 17.1528 6.63745C17.1528 6.34726 17.2099 6.05992 17.321 5.79183C17.432 5.52373 17.5948 5.28014 17.8 5.07495L19.9537 2.92245C20.2725 2.6037 20.1687 2.0662 19.7325 1.9512C18.663 1.66672 17.5361 1.67981 16.4735 1.98905C15.4108 2.29829 14.4529 2.89192 13.703 3.70586C12.9531 4.5198 12.4399 5.52312 12.2186 6.60748C11.9973 7.69184 12.0765 8.81604 12.4475 9.8587C12.5362 10.1087 12.4862 10.3887 12.3 10.5749L2.125 20.7499C1.625 21.2499 1.625 22.0612 2.125 22.5599L3.44 23.8749C3.94 24.3749 4.74875 24.3749 5.24875 23.8749L15.4238 13.6999C15.6113 13.5124 15.8913 13.4624 16.14 13.5512C17.0568 13.8771 18.0384 13.9781 19.0023 13.8456C19.9662 13.7131 20.8842 13.351 21.679 12.7898C22.4738 12.2286 23.1222 11.4847 23.5696 10.6207C24.017 9.75673 24.2504 8.79791 24.25 7.82495Z" stroke="#333333" stroke-width="1" stroke-linecap="round" stroke-linejoin="round"/>
</svg>
